<?xml version="1.0" encoding="UTF-8"?>
<svg width="32px" height="32px" viewBox="0 0 32 32" version="1.1" xmlns="http://www.w3.org/2000/svg" xmlns:xlink="http://www.w3.org/1999/xlink">
    <title>tea-kettle-1</title>
    <g id="Page-1" stroke="none" stroke-width="1" fill="none" fill-rule="evenodd">
        <g id="Room---Detail-1" transform="translate(-135.000000, -1138.000000)" fill="#5A5A5A" fill-rule="nonzero">
            <g id="body" transform="translate(135.000000, 711.000000)">
                <g id="facilities" transform="translate(0.000000, 304.000000)">
                    <g id="tea-kettle-1" transform="translate(0.000000, 123.000000)">
                        <path d="M4.67066667,32 C3.568,32 2.67066667,31.1026667 2.67066667,30 L2.67066667,27.3333333 C2.63466667,23.3973333 2.98666667,19.4373333 3.71866667,15.5666667 C3.87333333,14.8066667 3.57733333,14.0186667 2.964,13.556 L0.536,11.7333333 C-0.052,11.2933333 -0.172,10.456 0.269333333,9.86666667 C0.521333333,9.53333333 0.92,9.33333333 1.33733333,9.33333333 L5.63733333,9.33333333 C7.22266667,5.80533333 9.36266667,3.656 12.004,2.93733333 L12.004,2 C12.004,0.897333333 12.9013333,0 14.004,0 C15.1066667,0 16.004,0.897333333 16.004,2 L16.004,2.89866667 C18.8346667,3.56933333 21.052,5.708 22.6013333,9.26133333 C23.4573333,8.876 24.3946667,8.67466667 25.332,8.67466667 C27.672,8.67466667 29.868,9.91866667 31.0613333,11.9226667 C31.972,13.452 32.2333333,15.2453333 31.796,16.972 C31.3586667,18.6986667 30.2746667,20.1506667 28.7453333,21.0626667 C27.7146667,21.676 26.5333333,22.0013333 25.3293333,22.0013333 C25.2786667,22.0013333 25.228,22.0013333 25.176,22 C25.2826667,23.6906667 25.3373333,25.4826667 25.3373333,27.3346667 L25.3373333,30.0013333 C25.3373333,31.104 24.44,32.0013333 23.3373333,32.0013333 L4.67066667,32.0013333 L4.67066667,32 Z M4.004,30 C4.004,30.368 4.30266667,30.6666667 4.67066667,30.6666667 L23.3373333,30.6666667 C23.7053333,30.6666667 24.004,30.368 24.004,30 L24.004,28 L4.004,28 L4.004,30 Z M24.0013333,26.6666667 C23.9546667,19.88 23.1933333,14.5 21.736,10.6666667 L1.33733333,10.6666667 L3.76533333,12.4906667 C4.78666667,13.2626667 5.28133333,14.5706667 5.02666667,15.824 C4.35333333,19.3853333 4.008,23.0333333 4.00133333,26.6666667 L24.0013333,26.6666667 Z M25.0786667,20.656 C25.164,20.66 25.2493333,20.6626667 25.3346667,20.6626667 C26.3,20.6626667 27.2426667,20.4053333 28.0613333,19.916 C29.2853333,19.1866667 30.152,18.0253333 30.5013333,16.644 C30.8506667,15.2626667 30.6426667,13.828 29.9133333,12.604 C29.184,11.38 28.0226667,10.5133333 26.6413333,10.164 C26.2133333,10.056 25.7733333,10 25.336,10 C24.568,10 23.7986667,10.172 23.0933333,10.5013333 C24.0773333,13.208 24.744,16.6213333 25.0786667,20.656 Z M21.172,9.33333333 C19.728,6.27333333 17.7293333,4.51466667 15.2293333,4.10266667 C14.9053333,4.04933333 14.6706667,3.772 14.6706667,3.44533333 L14.6706667,2 C14.6706667,1.632 14.372,1.33333333 14.004,1.33333333 C13.636,1.33333333 13.3373333,1.632 13.3373333,2 L13.3373333,3.46666667 C13.3373333,3.78533333 13.1106667,4.06 12.7973333,4.12133333 C10.4906667,4.568 8.57733333,6.32133333 7.10533333,9.33333333 L21.172,9.33333333 Z" id="Shape"></path>
                        <path d="M14.004,25.3333333 C12.104,25.3333333 10.6706667,22.468 10.6706667,18.6666667 C10.6706667,14.8666667 12.104,12 14.004,12 C15.904,12 17.3373333,14.8666667 17.3373333,18.6666667 C17.3373333,22.468 15.904,25.3333333 14.004,25.3333333 Z M14.004,13.3333333 C13.1693333,13.3333333 12.004,15.3626667 12.004,18.6666667 C12.004,21.9706667 13.1693333,24 14.004,24 C14.8386667,24 16.004,21.9706667 16.004,18.6666667 C16.004,15.3626667 14.8386667,13.3333333 14.004,13.3333333 Z" id="Shape"></path>
                    </g>
                </g>
            </g>
        </g>
    </g>
</svg>